<svg width="46" height="46" viewBox="0 0 46 46" fill="none" xmlns="http://www.w3.org/2000/svg">
  <g clip-path="url(#clip0_6_312)">
    <path
      d="M36.473 22.4491C36.3704 22.417 36.2715 22.4088 36.1758 22.4246C35.9699 22.4587 35.8015 22.5677 35.6696 22.7523L34.4019 24.5222C34.2835 24.6882 34.2409 24.8738 34.2749 25.0797L35.2718 31.1069C35.4445 32.1513 35.2213 33.1061 34.6003 33.9731C33.9797 34.8396 33.1472 35.3592 32.1029 35.5319L12.3586 38.7974C11.3143 38.9701 10.3589 38.7462 9.49238 38.1256C8.62569 37.5048 8.1063 36.6728 7.93356 35.6283L4.66816 15.8845C4.49548 14.8403 4.71927 13.885 5.33993 13.0182C5.96045 12.1517 6.79293 11.6321 7.83724 11.4594L27.5817 8.19391C27.9299 8.13634 28.2936 8.12494 28.6731 8.15977C28.7733 8.17548 28.8471 8.17976 28.894 8.172C29.1 8.13794 29.269 8.02895 29.4009 7.84463L30.3714 6.48947C30.5298 6.26851 30.5633 6.02711 30.471 5.7663C30.3816 5.52097 30.209 5.36252 29.9534 5.29113C29.0342 5.03736 28.0755 4.99209 27.0788 5.15693L7.33494 8.42232C5.45229 8.73369 3.95298 9.66838 2.8372 11.2264C1.7216 12.7845 1.31936 14.5047 1.63075 16.3874L4.89622 36.1318C5.20755 38.0142 6.14223 39.5134 7.70014 40.6292C9.2582 41.7453 10.9786 42.1475 12.8613 41.8361L32.6055 38.5707C34.4879 38.2594 35.9874 37.3246 37.1031 35.7663C38.219 34.2083 38.6218 32.488 38.3105 30.6055L37.0623 23.0585C37.0072 22.7266 36.8103 22.5236 36.473 22.4491Z"
      fill="#333333"
      stroke="#FFFFFF"
      stroke-width="0.5"
      stroke-linejoin="round"
      stroke-linecap="round"
      style="paint-order: stroke fill;"
    />
    <path
      d="M40.1771 7.84221L37.1347 5.6633C36.6922 5.34649 36.2096 5.23126 35.6874 5.31763C35.1658 5.40389 34.7457 5.66841 34.4291 6.11076L21.6142 24.0044L14.341 18.7952C13.8984 18.4782 13.4161 18.3632 12.8942 18.4495C12.3722 18.5358 11.9527 18.8 11.6356 19.2426L9.457 22.2847C9.14011 22.7272 9.02469 23.2096 9.11106 23.7319C9.19739 24.2539 9.46197 24.6733 9.90448 24.9903L21.7965 33.507C22.2391 33.8241 22.7214 33.939 23.2433 33.8527C23.7652 33.7664 24.1848 33.5024 24.5018 33.0595L40.6243 10.5475C40.941 10.1052 41.0566 9.62262 40.9703 9.10063C40.8839 8.57864 40.6196 8.15902 40.1771 7.84221Z"
      fill="#333333"
      stroke="#FFFFFF"
      stroke-width="0.5"
      stroke-linejoin="round"
      stroke-linecap="round"
      style="paint-order: stroke fill;"
    />
  </g>

  <defs>
    <clipPath id="clip0_6_312">
      <rect width="40.0012" height="40.0012" fill="white" transform="translate(0 6.52704) rotate(-9.391)"/>
    </clipPath>
  </defs>
</svg>